<svg xmlns="http://www.w3.org/2000/svg" viewBox="0 0 704 138"><defs><style>.cls-1{fill:#fff;}</style></defs><title>logo_new</title><g id="Layer_2" data-name="Layer 2"><g id="Layer_1-2" data-name="Layer 1"><path class="cls-1" d="M9,67.08H2.16V1.35H9Z"/><path class="cls-1" d="M112.74,67.08h-5.9L63.92,13.73V67.08H57.06V1.35h5.7l43.11,53.94V1.35h6.86Z"/><path class="cls-1" d="M197.51,67.47H181.08L152.56,1.35h18l18.75,44.56L208,1.35h18Z"/><path class="cls-1" d="M324.48,34.22c0,19.14-15,34.22-34.9,34.22s-34.8-15.08-34.8-34.22S269.76,0,289.58,0,324.48,15.08,324.48,34.22Zm-16.63,0c0-10.34-7.64-19-18.27-19s-18.27,8.7-18.27,19,7.64,19,18.27,19S307.85,44.56,307.85,34.22Z"/><path class="cls-1" d="M412.3,67.08H363.48V1.35h16.34V52.68H412.3Z"/><path class="cls-1" d="M482.52,67.57h-6.38L445.79,1.35h7.54l26,57,26-57h7.44Z"/><path class="cls-1" d="M560.62,31.22h34.9V37.6h-34.9V60.8h38.76v6.28H553.76V1.35h45.63V7.64H560.62Z"/><path class="cls-1" d="M667.24,1.35c20.4,0,34.61,13.44,34.61,32.38,0,19.62-14.21,33.35-34.61,33.35H644.42V1.35Zm0,59.45c16.14,0,27.55-11.21,27.55-27.07,0-15.18-11.41-26.1-27.55-26.1h-16V60.8Z"/><rect class="cls-1" y="94" width="704" height="44"/><path d="M37.83,126.83a13.56,13.56,0,0,1-4.48-2.11l2-4.39a13.44,13.44,0,0,0,3.85,1.91,14.45,14.45,0,0,0,4.46.72,7.13,7.13,0,0,0,3.67-.74,2.23,2.23,0,0,0,1.19-2,1.88,1.88,0,0,0-.7-1.49,5.33,5.33,0,0,0-1.8-1q-1.1-.36-3-.79a40.83,40.83,0,0,1-4.71-1.37,7.66,7.66,0,0,1-3.15-2.2,5.93,5.93,0,0,1-1.31-4,7,7,0,0,1,1.19-4,8,8,0,0,1,3.58-2.83,14.61,14.61,0,0,1,5.85-1,19.37,19.37,0,0,1,4.72.58,13.9,13.9,0,0,1,4,1.66l-1.8,4.43a14.05,14.05,0,0,0-7-2,6.55,6.55,0,0,0-3.62.79,2.42,2.42,0,0,0-1.17,2.09A2,2,0,0,0,41,111.06a21.22,21.22,0,0,0,4.12,1.24,41.14,41.14,0,0,1,4.72,1.37A7.82,7.82,0,0,1,53,115.83a5.8,5.8,0,0,1,1.31,4,6.88,6.88,0,0,1-1.21,3.94,8.1,8.1,0,0,1-3.62,2.83,14.75,14.75,0,0,1-5.87,1A20.61,20.61,0,0,1,37.83,126.83Z"/><path d="M162.15,106.76h-8.06V102h22v4.75H168V127.2h-5.83Z"/><path d="M280.54,124.65q-3-3-3-8.53V102h5.83v13.9q0,6.77,5.62,6.77a5.26,5.26,0,0,0,4.18-1.64q1.44-1.64,1.44-5.13V102h5.76v14.11q0,5.54-3,8.53t-8.41,3Q283.55,127.64,280.54,124.65Z"/><path d="M405.12,102h11.45a16.09,16.09,0,0,1,7.25,1.57,11.72,11.72,0,0,1,4.89,4.41,13.44,13.44,0,0,1,0,13.25,11.73,11.73,0,0,1-4.89,4.41,16.11,16.11,0,0,1-7.25,1.57H405.12Zm11.16,20.41a8.47,8.47,0,0,0,6-2.11,8.36,8.36,0,0,0,0-11.41,8.47,8.47,0,0,0-6-2.11h-5.33v15.62Z"/><path d="M533.85,102h5.83v25.2h-5.83Z"/><path d="M649.79,125.94a12.56,12.56,0,0,1-4.93-4.66,13.41,13.41,0,0,1,0-13.36,12.57,12.57,0,0,1,4.93-4.66,15.6,15.6,0,0,1,14.13,0,12.85,12.85,0,0,1,0,22.68,15.59,15.59,0,0,1-14.13,0Zm11.11-4.3a7.37,7.37,0,0,0,2.83-2.86,9,9,0,0,0,0-8.35,7.36,7.36,0,0,0-2.83-2.86,8.43,8.43,0,0,0-8.06,0,7.36,7.36,0,0,0-2.83,2.86,9,9,0,0,0,0,8.35,7.37,7.37,0,0,0,2.83,2.86,8.44,8.44,0,0,0,8.06,0Z"/></g></g></svg>