<svg xmlns="http://www.w3.org/2000/svg" viewBox="0 0 704.79 138"><defs><style>.cls-1{fill:#fff;}</style></defs><title>Asset 3</title><g id="Layer_2" data-name="Layer 2"><g id="Layer_1-2" data-name="Layer 1"><path class="cls-1" d="M9.41,67.08H2.55V1.35H9.41Z"/><path class="cls-1" d="M113.13,67.08h-5.9L64.32,13.73V67.08H57.46V1.35h5.7l43.11,53.94V1.35h6.86Z"/><path class="cls-1" d="M197.9,67.47H181.47L153,1.35h18l18.75,44.56L208.44,1.35h18Z"/><path class="cls-1" d="M324.87,34.22c0,19.14-15,34.22-34.9,34.22s-34.8-15.08-34.8-34.22S270.16,0,290,0,324.87,15.08,324.87,34.22Zm-16.63,0c0-10.34-7.64-19-18.27-19s-18.27,8.7-18.27,19,7.64,19,18.27,19S308.25,44.56,308.25,34.22Z"/><path class="cls-1" d="M412.69,67.08H363.87V1.35h16.34V52.68h32.48Z"/><path class="cls-1" d="M482.91,67.57h-6.38L446.18,1.35h7.54l26,57,26-57h7.44Z"/><path class="cls-1" d="M561,31.22h34.9V37.6H561V60.8h38.76v6.28H554.15V1.35h45.63V7.64H561Z"/><path class="cls-1" d="M667.63,1.35c20.4,0,34.61,13.44,34.61,32.38,0,19.62-14.21,33.35-34.61,33.35H644.82V1.35Zm0,59.45c16.14,0,27.55-11.21,27.55-27.07,0-15.18-11.41-26.1-27.55-26.1h-16V60.8Z"/><path class="cls-1" d="M427.74,108.89a6.82,6.82,0,0,0-3.55-.92H420v14.64h4.49a6.4,6.4,0,0,0,3.41-.91,6.16,6.16,0,0,0,2.32-2.57,8.4,8.4,0,0,0,.83-3.81,8.06,8.06,0,0,0-.89-3.84A6.49,6.49,0,0,0,427.74,108.89Z"/><path class="cls-1" d="M693.75,108.77a6.43,6.43,0,0,0-3.46-1,6.61,6.61,0,0,0-3.5,1,7.06,7.06,0,0,0-2.56,2.7,8.09,8.09,0,0,0,0,7.61,7.35,7.35,0,0,0,2.56,2.72,6.44,6.44,0,0,0,3.48,1,6.35,6.35,0,0,0,3.46-1,7,7,0,0,0,2.48-2.72,8.45,8.45,0,0,0,0-7.61A6.89,6.89,0,0,0,693.75,108.77Z"/><path class="cls-1" d="M0,93.7V138H704.79V93.7Zm21.17,31.07a8.14,8.14,0,0,1-3.68,2.7,14.3,14.3,0,0,1-5.2.91A18.84,18.84,0,0,1,6,127.27a17.23,17.23,0,0,1-5.42-3l2.57-5.18a16,16,0,0,0,4.55,2.79,12.4,12.4,0,0,0,4.66,1.09,4.3,4.3,0,0,0,2.34-.54,1.77,1.77,0,0,0,.85-1.59,1.89,1.89,0,0,0-.63-1.45,4.71,4.71,0,0,0-1.59-.92q-1-.34-2.7-.82a33.11,33.11,0,0,1-4.31-1.47,7.63,7.63,0,0,1-2.92-2.25,6.18,6.18,0,0,1-1.21-4,7,7,0,0,1,1.25-4.13A8,8,0,0,1,7,103a13.79,13.79,0,0,1,5.35-1,19.41,19.41,0,0,1,5.44.78,18,18,0,0,1,4.71,2.08L20,110.22a22.37,22.37,0,0,0-4.33-2,12.76,12.76,0,0,0-3.86-.76,3.58,3.58,0,0,0-1.94.45,1.47,1.47,0,0,0-.71,1.32,1.81,1.81,0,0,0,.62,1.4,4.74,4.74,0,0,0,1.52.91q.91.34,2.68.89A35,35,0,0,1,18.32,114a7.65,7.65,0,0,1,3,2.34,6.49,6.49,0,0,1,1.23,4.11A7,7,0,0,1,21.17,124.77Zm137-16.73h-7.61V128h-6.63V108h-7.54v-5.47h21.78Zm138,9.46a11.61,11.61,0,0,1-1.4,5.78,9.46,9.46,0,0,1-4,3.82,13.06,13.06,0,0,1-6.07,1.34,13.28,13.28,0,0,1-6.11-1.34,9.62,9.62,0,0,1-4.06-3.82,11.35,11.35,0,0,1-1.43-5.78V102.57h6.63V117.5a5.27,5.27,0,0,0,1.41,3.84,4.8,4.8,0,0,0,3.59,1.45,4.49,4.49,0,0,0,3.46-1.43,5.46,5.46,0,0,0,1.32-3.86V102.57h6.63Zm140,4.39a11.65,11.65,0,0,1-4.86,4.5,15.64,15.64,0,0,1-7.19,1.59H413.38V102.57h10.95a15.06,15.06,0,0,1,7,1.59,11.68,11.68,0,0,1,4.77,4.48,13.66,13.66,0,0,1,0,13.25ZM560.48,128h-6.63V102.57h6.63Zm141.68-6a12.94,12.94,0,0,1-4.93,4.75,15.07,15.07,0,0,1-14,0,12.74,12.74,0,0,1-4.93-4.75,13,13,0,0,1-1.79-6.76,12.63,12.63,0,0,1,6.72-11.34,15.28,15.28,0,0,1,14,0A12.63,12.63,0,0,1,704,115.22,12.9,12.9,0,0,1,702.16,122Z"/></g></g></svg>